<svg width="65" height="56" viewBox="0 0 65 56" fill="none" xmlns="http://www.w3.org/2000/svg">
<path d="M64.0037 26C64.0037 40.3625 49.6787 52 32.0037 52C27.3662 52 22.9662 51.2 18.9912 49.7625C17.5037 50.85 15.0787 52.3375 12.2037 53.5875C9.20371 54.8875 5.59121 56 2.00371 56C1.19121 56 0.466207 55.5125 0.153707 54.7625C-0.158793 54.0125 0.0162069 53.1625 0.578707 52.5875L0.616207 52.55C0.653707 52.5125 0.703707 52.4625 0.778707 52.375C0.916207 52.225 1.12871 51.9875 1.39121 51.6625C1.90371 51.0375 2.59121 50.1125 3.29121 48.9625C4.54121 46.8875 5.72871 44.1625 5.96621 41.1C2.21621 36.85 0.00370689 31.6375 0.00370689 26C0.00370689 11.6375 14.3287 0 32.0037 0C49.6787 0 64.0037 11.6375 64.0037 26Z" fill="black"/>
</svg>
