<svg width="65" height="56" viewBox="0 0 65 56" fill="none" xmlns="http://www.w3.org/2000/svg">
<path d="M20.0114 46.9413L18.5098 46.3982L17.2206 47.3407C15.9044 48.303 13.672 49.6776 11.0095 50.8354C8.90065 51.7492 6.58346 52.5098 4.28624 52.8331C4.76577 52.1984 5.30762 51.4196 5.8538 50.5223L5.85383 50.5224L5.86095 50.5105C7.25983 48.1884 8.67199 45.0101 8.95723 41.332L9.05535 40.0667L8.21572 39.1151C4.88787 35.3436 3.00371 30.8187 3.00371 26C3.00371 13.8465 15.3733 3 32.0037 3C48.6341 3 61.0037 13.8465 61.0037 26C61.0037 38.1535 48.6341 49 32.0037 49C27.7108 49 23.6563 48.2594 20.0114 46.9413Z" stroke="black" stroke-width="6"/>
</svg>
