<svg width="70" height="64" viewBox="0 0 70 64" fill="none" xmlns="http://www.w3.org/2000/svg">
<path d="M66.9832 31.9434C66.9832 33.9824 65.3164 35.5797 63.4274 35.5797H59.8715L59.9493 53.7273C59.9493 54.0332 59.9271 54.3391 59.8937 54.6449V56.4688C59.8937 58.9723 57.9047 61 55.4489 61H53.671C53.5487 61 53.4265 61 53.3043 60.9887C53.1487 61 52.9931 61 52.8376 61H49.2262H46.5593C44.1035 61 42.1144 58.9723 42.1144 56.4688V53.75V46.5C42.1144 44.4949 40.5254 42.875 38.5586 42.875H31.4469C29.48 42.875 27.891 44.4949 27.891 46.5V53.75V56.4688C27.891 58.9723 25.9019 61 23.4462 61H20.7793H17.2345C17.0679 61 16.9012 60.9887 16.7345 60.9773C16.6012 60.9887 16.4678 61 16.3345 61H14.5565C12.1008 61 10.1117 58.9723 10.1117 56.4688V43.7812C10.1117 43.6793 10.1117 43.566 10.1228 43.4641V35.5797H6.55586C4.55569 35.5797 3 33.9938 3 31.9434C3 30.9238 3.33336 30.0176 4.11121 29.2246L32.6025 3.90625C33.3804 3.11328 34.2693 3 35.0472 3C35.825 3 36.714 3.22656 37.3807 3.79297L65.7609 29.2246C66.6499 30.0176 67.0943 30.9238 66.9832 31.9434Z" stroke="black" stroke-width="6"/>
</svg>
