<svg width="64" height="58" viewBox="0 0 64 58" fill="none" xmlns="http://www.w3.org/2000/svg">
<path d="M63.9832 28.9434C63.9832 30.9824 62.3164 32.5797 60.4274 32.5797H56.8715L56.9493 50.7273C56.9493 51.0332 56.9271 51.3391 56.8937 51.6449V53.4688C56.8937 55.9723 54.9047 58 52.4489 58H50.671C50.5487 58 50.4265 58 50.3043 57.9887C50.1487 58 49.9931 58 49.8376 58H46.2262H43.5593C41.1035 58 39.1144 55.9723 39.1144 53.4688V50.75V43.5C39.1144 41.4949 37.5254 39.875 35.5586 39.875H28.4469C26.48 39.875 24.891 41.4949 24.891 43.5V50.75V53.4688C24.891 55.9723 22.9019 58 20.4462 58H17.7793H14.2345C14.0679 58 13.9012 57.9887 13.7345 57.9773C13.6012 57.9887 13.4678 58 13.3345 58H11.5565C9.10077 58 7.11172 55.9723 7.11172 53.4688V40.7812C7.11172 40.6793 7.11172 40.566 7.12283 40.4641V32.5797H3.55586C1.55569 32.5797 0 30.9938 0 28.9434C0 27.9238 0.333362 27.0176 1.11121 26.2246L29.6025 0.90625C30.3804 0.113281 31.2693 0 32.0472 0C32.825 0 33.714 0.226562 34.3807 0.792969L62.7609 26.2246C63.6499 27.0176 64.0943 27.9238 63.9832 28.9434Z" fill="black"/>
</svg>
