<svg width="64" height="64" viewBox="0 0 64 64" fill="none" xmlns="http://www.w3.org/2000/svg">
<path d="M52 25.9962C52 31.7329 50.1375 37.0321 47 41.3314L62.825 57.1666C64.3875 58.7289 64.3875 61.266 62.825 62.8283C61.2625 64.3906 58.725 64.3906 57.1625 62.8283L41.3375 46.9931C37.0375 50.1427 31.7375 51.9924 26 51.9924C11.6375 51.9924 0 40.3566 0 25.9962C0 11.6358 11.6375 0 26 0C40.3625 0 52 11.6358 52 25.9962ZM26 43.9936C35.9375 43.9936 44 35.9322 44 25.9962C44 16.0601 35.9375 7.99883 26 7.99883C16.0625 7.99883 8 16.0601 8 25.9962C8 35.9322 16.0625 43.9936 26 43.9936Z" fill="black"/>
</svg>
