<svg width="64" height="66" viewBox="0 0 64 66" fill="none" xmlns="http://www.w3.org/2000/svg">
<path d="M9.14286 7.5625C7.88571 7.5625 6.85714 8.60312 6.85714 9.875V56.125C6.85714 57.3969 7.88571 58.4375 9.14286 58.4375H54.8571C56.1143 58.4375 57.1429 57.3969 57.1429 56.125V9.875C57.1429 8.60312 56.1143 7.5625 54.8571 7.5625H9.14286ZM28.5714 45.7188V36.4688H19.4286C17.5286 36.4688 16 34.9223 16 33C16 31.0777 17.5286 29.5312 19.4286 29.5312H28.5714V20.2812C28.5714 18.359 30.1 16.8125 32 16.8125C33.9 16.8125 35.4286 18.359 35.4286 20.2812V29.5312H44.5714C46.4714 29.5312 48 31.0777 48 33C48 34.9223 46.4714 36.4688 44.5714 36.4688H35.4286V45.7188C35.4286 47.641 33.9 49.1875 32 49.1875C30.1 49.1875 28.5714 47.641 28.5714 45.7188Z" fill="black"/>
<path d="M9.14286 7.5625C7.88571 7.5625 6.85714 8.60312 6.85714 9.875V56.125C6.85714 57.3969 7.88571 58.4375 9.14286 58.4375H54.8571C56.1143 58.4375 57.1429 57.3969 57.1429 56.125V9.875C57.1429 8.60312 56.1143 7.5625 54.8571 7.5625H9.14286ZM0 9.875C0 4.77305 4.1 0.625 9.14286 0.625H54.8571C59.9 0.625 64 4.77305 64 9.875V56.125C64 61.227 59.9 65.375 54.8571 65.375H9.14286C4.1 65.375 0 61.227 0 56.125V9.875Z" fill="black"/>
</svg>
